# The Great Editor v0.0.1
mtllib floor_1.mtl
o floor_1
v 24.277064942242465 -31.33679549794734 0
v 24.277064942242465 -31.33679549794734 -0.1
v 24.25601564017106 -31.72582253805972 0
v 24.25601564017106 -31.72582253805972 -0.1
v 23.551569942494776 -31.736347189095426 0
v 23.551569942494776 -31.736347189095426 -0.1
v 23.55862915965287 -46.12977010094064 0
v 23.55862915965287 -46.12977010094064 -0.1
v 24.288102990889666 -46.14032683932706 0
v 24.288102990889666 -46.14032683932706 -0.1
v 24.256368601028964 -46.49976934207688 0
v 24.256368601028964 -46.49976934207688 -0.1
v 44.015791260897416 -46.48921260369046 0
v 44.015791260897416 -46.48921260369046 -0.1
v 44.015791260897416 -46.09803571107994 0
v 44.015791260897416 -46.09803571107994 -0.1
v 44.671271661377105 -46.108624536817075 0
v 44.671271661377105 -46.108624536817075 -0.1
v 44.68186048711425 -51.01410662732688 0
v 44.68186048711425 -51.01410662732688 -0.1
v 44.65012609725355 -55.28525388148056 0
v 44.65012609725355 -55.28525388148056 -0.1
v 44.63956935886713 -58.82695939174816 0
v 44.63956935886713 -58.82695939174816 -0.1
v 52.833010190161794 -58.858661694258146 0
v 52.833010190161794 -58.858661694258146 -0.1
v 52.80127580030109 -55.33813383546482 0
v 52.80127580030109 -55.33813383546482 -0.1
v 58.39397268115129 -55.34869057385124 0
v 58.39397268115129 -55.34869057385124 -0.1
v 58.38341594276487 -46.816952803930306 0
v 58.38341594276487 -46.816952803930306 -0.1
v 58.41511824527485 -46.47862377795332 0
v 58.41511824527485 -46.47862377795332 -0.1
v 78.11110421277263 -46.45747821382976 0
v 78.11110421277263 -46.45747821382976 -0.1
v 78.15339534101975 -46.1931747059606 0
v 78.15339534101975 -46.1931747059606 -0.1
v 78.81943247988585 -46.18261796757418 0
v 78.81943247988585 -46.18261796757418 -0.1
v 78.80887574149942 -31.571867429311848 0
v 78.80887574149942 -31.571867429311848 -0.1
v 78.29082546414753 -31.529576301064726 0
v 78.29082546414753 -31.529576301064726 -0.1
v 78.28026872576112 -31.138399408454198 0
v 78.28026872576112 -31.138399408454198 -0.1
v 78.21683203339042 -27.321833651931012 0
v 78.21683203339042 -27.321833651931012 -0.1
v 78.85116686974655 -27.29013134942103 0
v 78.85116686974655 -27.29013134942103 -0.1
v 78.85116686974655 -20.872789555102653 0
v 78.85116686974655 -20.872789555102653 -0.1
v 58.00446433077813 -20.8749394076008 0
v 58.00446433077813 -20.8749394076008 -0.1
v 58.0558040919279 -19.478947127237113 0
v 58.0558040919279 -19.478947127237113 -0.1
v 57.737593834851474 -19.41737150120811 0
v 57.737593834851474 -19.41737150120811 -0.1
v 57.737593834851474 -18.657799734997266 0
v 57.737593834851474 -18.657799734997266 -0.1
v 58.0558040919279 -18.64753178276731 0
v 58.0558040919279 -18.64753178276731 -0.1
v 58.0558040919279 -12.427206321861174 0
v 58.0558040919279 -12.427206321861174 -0.1
v 57.706789978161616 -12.386134512941357 0
v 57.706789978161616 -12.386134512941357 -0.1
v 57.706789978161616 -11.287816585194184 0
v 57.706789978161616 -11.287816585194184 -0.1
v 57.93262075251916 -11.246776863625087 0
v 57.93262075251916 -11.246776863625087 -0.1
v 57.91208484805926 -5.272785994185692 0
v 57.91208484805926 -5.272785994185692 -0.1
v 54.165533690804075 -5.2625180419557385 0
v 54.165533690804075 -5.2625180419557385 -0.1
v 54.17580164303403 -4.975111641569182 0
v 54.17580164303403 -4.975111641569182 -0.1
v 50.00836070640288 -4.9956475460290894 0
v 50.00836070640288 -4.9956475460290894 -0.1
v 49.99809275417293 -5.252250089725784 0
v 49.99809275417293 -5.252250089725784 -0.1
v 49.23852098796208 -5.313825715754789 0
v 49.23852098796208 -5.313825715754789 -0.1
v 49.22825303573212 -5.036687267598187 0
v 49.22825303573212 -5.036687267598187 -0.1
v 44.722098024915375 -4.9956475460290894 0
v 44.722098024915375 -4.9956475460290894 -0.1
v 44.73236597714533 -5.3240936679847435 0
v 44.73236597714533 -5.3240936679847435 -0.1
v 44.393651902959725 -5.334361620214698 0
v 44.393651902959725 -5.334361620214698 -0.1
v 44.40391985518968 -10.589820445012343 0
v 44.40391985518968 -10.589820445012343 -0.1
v 44.639986494426466 -10.579552492782389 0
v 44.639986494426466 -10.579552492782389 -0.1
v 44.670790351116324 -11.975544773146071 0
v 44.670790351116324 -11.975544773146071 -0.1
v 44.41418780741963 -11.985812725376025 0
v 44.41418780741963 -11.985812725376025 -0.1
v 44.37311599849981 -14.613542137774848 0
v 44.37311599849981 -14.613542137774848 -0.1
v 44.40391985518968 -16.440627975043007 0
v 44.40391985518968 -16.440627975043007 -0.1
v 44.393651902959725 -18.750179217716127 0
v 44.393651902959725 -18.750179217716127 -0.1
v 44.71186216003614 -18.750179217716127 0
v 44.71186216003614 -18.750179217716127 -0.1
v 44.70159420780619 -19.437907405668017 0
v 44.70159420780619 -19.437907405668017 -0.1
v 44.393651902959725 -19.458411222777205 0
v 44.393651902959725 -19.458411222777205 -0.1
v 44.40391985518968 -20.269322750137825 0
v 44.40391985518968 -20.269322750137825 -0.1
v 44.424423672298865 -24.344352116699383 0
v 44.424423672298865 -24.344352116699383 -0.1
v 44.71186216003614 -24.375155973389244 0
v 44.71186216003614 -24.375155973389244 -0.1
v 44.722098024915375 -25.45293799667651 0
v 44.722098024915375 -25.45293799667651 -0.1
v 44.66052239888638 -26.356229006755996 0
v 44.66052239888638 -26.356229006755996 -0.1
v 44.424423672298865 -26.376732823865183 0
v 44.424423672298865 -26.376732823865183 -0.1
v 44.36284804626986 -30.256767360109773 0
v 44.36284804626986 -30.256767360109773 -0.1
v 44.402058788848 -31.527330186514423 0
v 44.402058788848 -31.527330186514423 -0.1
v 43.709196624781136 -31.614158557558973 0
v 43.709196624781136 -31.614158557558973 -0.1
v 43.69713178091094 -31.36833736370373 0
v 43.69713178091094 -31.36833736370373 -0.1
v 29.649899295968773 -31.33679549794734 0
v 29.649899295968773 -31.33679549794734 -0.1
v 28.11480835023993 -31.326302934262355 0
v 28.11480835023993 -31.326302934262355 -0.1
v 24.718651062831924 -31.347320148983044 0
v 24.718651062831924 -31.347320148983044 -0.1
vt 24.277064942242465 -31.33679549794734 0
vt 24.25601564017106 -31.72582253805972 0
vt 23.551569942494776 -31.736347189095426 0
vt 23.55862915965287 -46.12977010094064 0
vt 24.288102990889666 -46.14032683932706 0
vt 24.256368601028964 -46.49976934207688 0
vt 44.015791260897416 -46.48921260369046 0
vt 44.015791260897416 -46.09803571107994 0
vt 44.671271661377105 -46.108624536817075 0
vt 44.68186048711425 -51.01410662732688 0
vt 44.65012609725355 -55.28525388148056 0
vt 44.63956935886713 -58.82695939174816 0
vt 52.833010190161794 -58.858661694258146 0
vt 52.80127580030109 -55.33813383546482 0
vt 58.39397268115129 -55.34869057385124 0
vt 58.38341594276487 -46.816952803930306 0
vt 58.41511824527485 -46.47862377795332 0
vt 78.11110421277263 -46.45747821382976 0
vt 78.15339534101975 -46.1931747059606 0
vt 78.81943247988585 -46.18261796757418 0
vt 78.80887574149942 -31.571867429311848 0
vt 78.29082546414753 -31.529576301064726 0
vt 78.28026872576112 -31.138399408454198 0
vt 78.21683203339042 -27.321833651931012 0
vt 78.85116686974655 -27.29013134942103 0
vt 78.85116686974655 -20.872789555102653 0
vt 58.00446433077813 -20.8749394076008 0
vt 58.0558040919279 -19.478947127237113 0
vt 57.737593834851474 -19.41737150120811 0
vt 57.737593834851474 -18.657799734997266 0
vt 58.0558040919279 -18.64753178276731 0
vt 58.0558040919279 -12.427206321861174 0
vt 57.706789978161616 -12.386134512941357 0
vt 57.706789978161616 -11.287816585194184 0
vt 57.93262075251916 -11.246776863625087 0
vt 57.91208484805926 -5.272785994185692 0
vt 54.165533690804075 -5.2625180419557385 0
vt 54.17580164303403 -4.975111641569182 0
vt 50.00836070640288 -4.9956475460290894 0
vt 49.99809275417293 -5.252250089725784 0
vt 49.23852098796208 -5.313825715754789 0
vt 49.22825303573212 -5.036687267598187 0
vt 44.722098024915375 -4.9956475460290894 0
vt 44.73236597714533 -5.3240936679847435 0
vt 44.393651902959725 -5.334361620214698 0
vt 44.40391985518968 -10.589820445012343 0
vt 44.639986494426466 -10.579552492782389 0
vt 44.670790351116324 -11.975544773146071 0
vt 44.41418780741963 -11.985812725376025 0
vt 44.37311599849981 -14.613542137774848 0
vt 44.40391985518968 -16.440627975043007 0
vt 44.393651902959725 -18.750179217716127 0
vt 44.71186216003614 -18.750179217716127 0
vt 44.70159420780619 -19.437907405668017 0
vt 44.393651902959725 -19.458411222777205 0
vt 44.40391985518968 -20.269322750137825 0
vt 44.424423672298865 -24.344352116699383 0
vt 44.71186216003614 -24.375155973389244 0
vt 44.722098024915375 -25.45293799667651 0
vt 44.66052239888638 -26.356229006755996 0
vt 44.424423672298865 -26.376732823865183 0
vt 44.36284804626986 -30.256767360109773 0
vt 44.402058788848 -31.527330186514423 0
vt 43.709196624781136 -31.614158557558973 0
vt 43.69713178091094 -31.36833736370373 0
vt 29.649899295968773 -31.33679549794734 0
vt 28.11480835023993 -31.326302934262355 0
vt 24.718651062831924 -31.347320148983044 0
vn 0 0 1
vn 0 0 -1
usemtl floor_1
s off
f 89/45/1 91/46/1 93/47/1
f 94/47/2 92/46/2 90/45/2
f 89/45/1 93/47/1 87/44/1
f 88/44/2 94/47/2 90/45/2
f 85/43/1 87/44/1 83/42/1
f 84/42/2 88/44/2 86/43/2
f 75/38/1 77/39/1 73/37/1
f 74/37/2 78/39/2 76/38/2
f 71/36/1 73/37/1 67/34/1
f 68/34/2 74/37/2 72/36/2
f 71/36/1 67/34/1 69/35/1
f 70/35/2 68/34/2 72/36/2
f 51/26/1 53/27/1 47/24/1
f 48/24/2 54/27/2 52/26/2
f 51/26/1 47/24/1 49/25/1
f 50/25/2 48/24/2 52/26/2
f 39/20/1 41/21/1 37/19/1
f 38/19/2 42/21/2 40/20/2
f 25/13/1 27/14/1 23/12/1
f 24/12/2 28/14/2 26/13/2
f 23/12/1 27/14/1 21/11/1
f 22/11/2 28/14/2 24/12/2
f 7/4/1 9/5/1 3/2/1
f 4/2/2 10/5/2 8/4/2
f 7/4/1 3/2/1 5/3/1
f 6/3/2 4/2/2 8/4/2
f 1/1/1 3/2/1 135/68/1
f 136/68/2 4/2/2 2/1/2
f 93/47/1 95/48/1 79/40/1
f 80/40/2 96/48/2 94/47/2
f 93/47/1 79/40/1 81/41/1
f 82/41/2 80/40/2 94/47/2
f 93/47/1 81/41/1 87/44/1
f 88/44/2 82/41/2 94/47/2
f 87/44/1 81/41/1 83/42/1
f 84/42/2 82/41/2 88/44/2
f 77/39/1 79/40/1 73/37/1
f 74/37/2 80/40/2 78/39/2
f 73/37/1 79/40/1 67/34/1
f 68/34/2 80/40/2 74/37/2
f 67/34/1 79/40/1 95/48/1
f 96/48/2 80/40/2 68/34/2
f 67/34/1 95/48/1 65/33/1
f 66/33/2 96/48/2 68/34/2
f 63/32/1 65/33/1 59/30/1
f 60/30/2 66/33/2 64/32/2
f 63/32/1 59/30/1 61/31/1
f 62/31/2 60/30/2 64/32/2
f 55/28/1 57/29/1 53/27/1
f 54/27/2 58/29/2 56/28/2
f 53/27/1 57/29/1 107/54/1
f 108/54/2 58/29/2 54/27/2
f 53/27/1 107/54/1 115/58/1
f 116/58/2 108/54/2 54/27/2
f 53/27/1 115/58/1 117/59/1
f 118/59/2 116/58/2 54/27/2
f 53/27/1 117/59/1 119/60/1
f 120/60/2 118/59/2 54/27/2
f 53/27/1 119/60/1 123/62/1
f 124/62/2 120/60/2 54/27/2
f 53/27/1 123/62/1 125/63/1
f 126/63/2 124/62/2 54/27/2
f 53/27/1 125/63/1 33/17/1
f 34/17/2 126/63/2 54/27/2
f 53/27/1 33/17/1 43/22/1
f 44/22/2 34/17/2 54/27/2
f 53/27/1 43/22/1 45/23/1
f 46/23/2 44/22/2 54/27/2
f 53/27/1 45/23/1 47/24/1
f 48/24/2 46/23/2 54/27/2
f 41/21/1 43/22/1 37/19/1
f 38/19/2 44/22/2 42/21/2
f 37/19/1 43/22/1 33/17/1
f 34/17/2 44/22/2 38/19/2
f 37/19/1 33/17/1 35/18/1
f 36/18/2 34/17/2 38/19/2
f 29/15/1 31/16/1 27/14/1
f 28/14/2 32/16/2 30/15/2
f 27/14/1 31/16/1 17/9/1
f 18/9/2 32/16/2 28/14/2
f 27/14/1 17/9/1 19/10/1
f 20/10/2 18/9/2 28/14/2
f 27/14/1 19/10/1 21/11/1
f 22/11/2 20/10/2 28/14/2
f 11/6/1 13/7/1 9/5/1
f 10/5/2 14/7/2 12/6/2
f 9/5/1 13/7/1 15/8/1
f 16/8/2 14/7/2 10/5/2
f 9/5/1 15/8/1 131/66/1
f 132/66/2 16/8/2 10/5/2
f 9/5/1 131/66/1 133/67/1
f 134/67/2 132/66/2 10/5/2
f 9/5/1 133/67/1 3/2/1
f 4/2/2 134/67/2 10/5/2
f 3/2/1 133/67/1 135/68/1
f 136/68/2 134/67/2 4/2/2
f 97/49/1 99/50/1 95/48/1
f 96/48/2 100/50/2 98/49/2
f 95/48/1 99/50/1 65/33/1
f 66/33/2 100/50/2 96/48/2
f 65/33/1 99/50/1 101/51/1
f 102/51/2 100/50/2 66/33/2
f 65/33/1 101/51/1 59/30/1
f 60/30/2 102/51/2 66/33/2
f 59/30/1 101/51/1 105/53/1
f 106/53/2 102/51/2 60/30/2
f 59/30/1 105/53/1 57/29/1
f 58/29/2 106/53/2 60/30/2
f 57/29/1 105/53/1 107/54/1
f 108/54/2 106/53/2 58/29/2
f 107/54/1 109/55/1 111/56/1
f 112/56/2 110/55/2 108/54/2
f 107/54/1 111/56/1 115/58/1
f 116/58/2 112/56/2 108/54/2
f 115/58/1 111/56/1 113/57/1
f 114/57/2 112/56/2 116/58/2
f 119/60/1 121/61/1 123/62/1
f 124/62/2 122/61/2 120/60/2
f 125/63/1 127/64/1 17/9/1
f 18/9/2 128/64/2 126/63/2
f 125/63/1 17/9/1 33/17/1
f 34/17/2 18/9/2 126/63/2
f 33/17/1 17/9/1 31/16/1
f 32/16/2 18/9/2 34/17/2
f 17/9/1 127/64/1 15/8/1
f 16/8/2 128/64/2 18/9/2
f 15/8/1 127/64/1 131/66/1
f 132/66/2 128/64/2 16/8/2
f 131/66/1 127/64/1 129/65/1
f 130/65/2 128/64/2 132/66/2
f 101/51/1 103/52/1 105/53/1
f 106/53/2 104/52/2 102/51/2
